<?xml version="1.0" encoding="UTF-8"?>
<svg width="228px" height="84px" viewBox="0 0 228 84" version="1.1" xmlns="http://www.w3.org/2000/svg" xmlns:xlink="http://www.w3.org/1999/xlink">
    <!-- Generator: Sketch 51.3 (57544) - http://www.bohemiancoding.com/sketch -->
    <title>Group</title>
    <desc>Created with Sketch.</desc>
    <defs></defs>
    <g id="Page-1" stroke="none" stroke-width="1" fill="none" fill-rule="evenodd">
        <g id="tutvustus" transform="translate(-365.000000, -228.000000)" fill="#FFFFFF">
            <g id="Group-15">
                <g id="Group" transform="translate(365.000000, 228.000000)">
                    <path d="M105.2715,80.4473 C104.7335,81.0543 104.0525,81.3573 103.2275,81.3573 C102.3895,81.3573 101.7055,81.0563 101.1715,80.4533 C100.6415,79.8573 100.3765,79.0883 100.3765,78.1563 C100.3765,77.2383 100.6445,76.4703 101.1845,75.8673 C101.7215,75.2603 102.4025,74.9533 103.2275,74.9533 C104.0375,74.9533 104.7155,75.2603 105.2615,75.8713 C105.8075,76.4823 106.0805,77.2403 106.0805,78.1563 C106.0805,79.0783 105.8105,79.8423 105.2715,80.4473 Z M107.3615,74.1133 C106.8145,73.5743 106.1835,73.1623 105.4655,72.8713 C104.7475,72.5843 104.0015,72.4333 103.2275,72.4333 C102.4475,72.4333 101.7015,72.5843 100.9905,72.8713 C100.2765,73.1623 99.6515,73.5743 99.1105,74.1133 C98.5495,74.6523 98.1235,75.2673 97.8335,75.9573 C97.5435,76.6403 97.3965,77.3753 97.3965,78.1563 C97.3965,78.9263 97.5435,79.6623 97.8335,80.3513 C98.1235,81.0433 98.5495,81.6603 99.1105,82.1993 C99.6515,82.7343 100.2765,83.1483 100.9905,83.4373 C101.7015,83.7283 102.4475,83.8713 103.2275,83.8713 C103.9975,83.8713 104.7395,83.7283 105.4525,83.4373 C106.1685,83.1483 106.8035,82.7343 107.3615,82.1993 C107.9125,81.6603 108.3315,81.0453 108.6195,80.3593 C108.9055,79.6723 109.0515,78.9413 109.0515,78.1563 C109.0515,77.3753 108.9055,76.6403 108.6155,75.9493 C108.3255,75.2613 107.9055,74.6483 107.3615,74.1133 Z M132.1305,77.2933 C131.8485,77.4943 131.3505,77.5903 130.6345,77.5903 L130.0665,77.5903 L130.0665,75.0253 L130.6645,75.0253 C131.3695,75.0253 131.8605,75.1273 132.1395,75.3163 C132.4155,75.5103 132.5575,75.8363 132.5575,76.2913 C132.5575,76.7633 132.4125,77.0993 132.1305,77.2933 Z M134.2015,73.4723 C133.8585,73.1813 133.4415,72.9803 132.9505,72.8613 C132.4585,72.7403 131.6045,72.6833 130.3895,72.6833 L127.2825,72.6833 L127.2825,83.5863 L130.0665,83.5863 L130.0665,79.9883 L131.1115,79.9883 C132.0295,79.9883 132.6965,79.9333 133.1135,79.8303 C133.5305,79.7263 133.8955,79.5563 134.2015,79.3163 C134.6065,78.9983 134.9155,78.5953 135.1245,78.0993 C135.3325,77.6033 135.4375,77.0333 135.4375,76.3813 C135.4375,75.7693 135.3315,75.2183 135.1215,74.7153 C134.9095,74.2183 134.6035,73.8063 134.2015,73.4723 Z M120.9355,77.8183 C120.5525,77.4273 119.7555,77.0683 118.5445,76.7383 L118.4105,76.7033 C117.8495,76.5523 117.4725,76.4003 117.2755,76.2343 C117.0795,76.0683 116.9805,75.8513 116.9805,75.5783 C116.9805,75.3103 117.0925,75.0923 117.3165,74.9203 C117.5395,74.7483 117.8295,74.6623 118.1865,74.6623 C118.5335,74.6623 118.8855,74.7363 119.2395,74.8813 C119.5975,75.0273 119.9415,75.2443 120.2805,75.5333 L121.2085,73.3943 C120.7285,73.0703 120.2185,72.8243 119.6795,72.6663 C119.1415,72.5043 118.5715,72.4223 117.9705,72.4223 C116.8595,72.4223 115.9555,72.7523 115.2575,73.4123 C114.5595,74.0663 114.2115,74.9163 114.2115,75.9593 C114.2115,76.7613 114.4315,77.3923 114.8725,77.8553 C115.3145,78.3163 116.0705,78.6933 117.1375,78.9843 C117.9175,79.1873 118.4175,79.3923 118.6385,79.5863 C118.8575,79.7853 118.9695,80.0623 118.9695,80.4273 C118.9695,80.7543 118.8405,81.0233 118.5865,81.2363 C118.3305,81.4513 118.0045,81.5563 117.6055,81.5563 C117.1785,81.5563 116.7525,81.4353 116.3205,81.1853 C115.8945,80.9373 115.4575,80.5643 115.0165,80.0603 L113.6755,82.2753 C114.2515,82.8243 114.8495,83.2243 115.4735,83.4843 C116.0965,83.7443 116.7885,83.8713 117.5465,83.8713 C118.8135,83.8713 119.8245,83.5213 120.5855,82.8203 C121.3435,82.1173 121.7255,81.1893 121.7255,80.0333 C121.7255,79.5743 121.6575,79.1603 121.5235,78.7833 C121.3885,78.4123 121.1915,78.0863 120.9355,77.8183 Z M148.1105,80.4473 C147.5735,81.0543 146.8925,81.3573 146.0665,81.3573 C145.2295,81.3573 144.5435,81.0563 144.0125,80.4533 C143.4805,79.8573 143.2155,79.0883 143.2155,78.1563 C143.2155,77.2383 143.4835,76.4703 144.0225,75.8673 C144.5615,75.2603 145.2425,74.9533 146.0665,74.9533 C146.8765,74.9533 147.5545,75.2603 148.1015,75.8713 C148.6465,76.4823 148.9185,77.2403 148.9185,78.1563 C148.9185,79.0783 148.6505,79.8423 148.1105,80.4473 Z M150.2005,74.1133 C149.6535,73.5743 149.0215,73.1623 148.3055,72.8713 C147.5875,72.5843 146.8425,72.4333 146.0665,72.4333 C145.2895,72.4333 144.5415,72.5843 143.8295,72.8713 C143.1175,73.1623 142.4905,73.5743 141.9495,74.1133 C141.3885,74.6523 140.9625,75.2673 140.6725,75.9573 C140.3825,76.6403 140.2365,77.3753 140.2365,78.1563 C140.2365,78.9263 140.3825,79.6623 140.6725,80.3513 C140.9625,81.0433 141.3885,81.6603 141.9495,82.1993 C142.4905,82.7343 143.1175,83.1483 143.8295,83.4373 C144.5415,83.7283 145.2895,83.8713 146.0665,83.8713 C146.8365,83.8713 147.5785,83.7283 148.2935,83.4373 C149.0075,83.1483 149.6445,82.7343 150.2005,82.1993 C150.7505,81.6603 151.1705,81.0453 151.4575,80.3593 C151.7465,79.6723 151.8905,78.9413 151.8905,78.1563 C151.8905,77.3753 151.7455,76.6403 151.4545,75.9493 C151.1655,75.2613 150.7465,74.6483 150.2005,74.1133 Z M170.2975,75.2603 L172.7405,75.2603 L172.7405,83.5863 L175.7115,83.5863 L175.7115,75.2603 L178.1525,75.2603 L178.1525,72.6833 L170.2975,72.6833 L170.2975,75.2603 Z M162.2305,77.5083 C161.9355,77.7263 161.4685,77.8323 160.8275,77.8323 L160.2765,77.8323 L160.2765,74.9673 L160.8715,74.9673 C161.5215,74.9673 161.9845,75.0843 162.2615,75.3143 C162.5355,75.5433 162.6755,75.9313 162.6755,76.4823 C162.6755,76.9453 162.5265,77.2893 162.2305,77.5083 Z M164.9795,78.1363 C165.3945,77.6053 165.6005,76.9243 165.6005,76.0763 C165.6005,75.5213 165.4955,75.0113 165.2845,74.5523 C165.0725,74.0903 164.7705,73.7073 164.3795,73.4123 C164.0315,73.1503 163.6185,72.9613 163.1405,72.8493 C162.6605,72.7383 161.8125,72.6833 160.5975,72.6833 L157.4905,72.6833 L157.4905,83.5863 L160.2765,83.5863 L160.2765,79.3163 L162.7775,83.5863 L166.1375,83.5863 L163.1655,79.1873 C163.9595,79.0133 164.5635,78.6643 164.9795,78.1363 Z M59.4975,72.6833 L57.8375,78.2893 C57.7435,78.6193 57.6695,78.9063 57.6145,79.1403 C57.5605,79.3793 57.5215,79.5933 57.5025,79.7853 C57.4625,79.4273 57.3665,78.9983 57.2125,78.5003 C57.1825,78.4103 57.1635,78.3433 57.1525,78.3023 L55.5065,72.6833 L52.5655,72.6833 L50.8825,83.5863 L53.6465,83.5863 L54.2865,78.8693 C54.3405,78.4683 54.3875,78.0663 54.4275,77.6623 C54.4675,77.2543 54.5015,76.8473 54.5315,76.4353 C54.5975,76.8923 54.7335,77.4653 54.9415,78.1563 C54.9805,78.2993 55.0105,78.4023 55.0305,78.4743 L56.5125,83.5863 L58.4935,83.5863 L59.9745,78.4743 C59.9945,78.4023 60.0265,78.2993 60.0715,78.1563 C60.2755,77.4653 60.4115,76.8883 60.4815,76.4263 C60.5105,76.9063 60.5445,77.3513 60.5825,77.7613 C60.6195,78.1683 60.6595,78.5393 60.7045,78.8693 L61.3455,83.5863 L64.1225,83.5863 L62.4475,72.6833 L59.4975,72.6833 Z M85.0515,75.2603 L87.4935,75.2603 L87.4935,83.5863 L90.4655,83.5863 L90.4655,75.2603 L92.9075,75.2603 L92.9075,72.6833 L85.0515,72.6833 L85.0515,75.2603 Z M76.7885,80.4473 C76.2495,81.0543 75.5675,81.3573 74.7445,81.3573 C73.9055,81.3573 73.2205,81.0563 72.6895,80.4533 C72.1585,79.8573 71.8935,79.0883 71.8935,78.1563 C71.8935,77.2383 72.1625,76.4703 72.7005,75.8673 C73.2395,75.2603 73.9205,74.9533 74.7445,74.9533 C75.5545,74.9533 76.2315,75.2603 76.7775,75.8713 C77.3225,76.4823 77.5965,77.2403 77.5965,78.1563 C77.5965,79.0783 77.3275,79.8423 76.7885,80.4473 Z M78.8765,74.1133 C78.3305,73.5743 77.6995,73.1623 76.9825,72.8713 C76.2645,72.5843 75.5195,72.4333 74.7445,72.4333 C73.9645,72.4333 73.2185,72.5843 72.5075,72.8713 C71.7945,73.1623 71.1685,73.5743 70.6265,74.1133 C70.0645,74.6523 69.6405,75.2673 69.3505,75.9573 C69.0595,76.6403 68.9145,77.3753 68.9145,78.1563 C68.9145,78.9263 69.0595,79.6623 69.3505,80.3513 C69.6405,81.0433 70.0645,81.6603 70.6265,82.1993 C71.1685,82.7343 71.7945,83.1483 72.5075,83.4373 C73.2185,83.7283 73.9645,83.8713 74.7445,83.8713 C75.5145,83.8713 76.2565,83.7283 76.9705,83.4373 C77.6865,83.1483 78.3215,82.7343 78.8765,82.1993 C79.4275,81.6603 79.8475,81.0453 80.1355,80.3593 C80.4235,79.6723 80.5665,78.9413 80.5665,78.1563 C80.5665,77.3753 80.4235,76.6403 80.1315,75.9493 C79.8415,75.2613 79.4235,74.6483 78.8765,74.1133 Z" id="Fill-7"></path>
                    <path d="M190.7329,28.7583 L185.8489,28.7583 L185.8489,34.1903 L190.7329,34.1903 C192.2339,34.1903 193.4489,32.9733 193.4489,31.4733 C193.4489,29.9733 192.2339,28.7583 190.7329,28.7583" id="Fill-9"></path>
                    <path d="M70.4575,15.2407 C74.6325,15.2407 78.0135,11.8597 78.0135,7.6837 C78.0135,3.5087 74.6325,0.1277 70.4575,0.1277 C66.2835,0.1277 62.8995,3.5087 62.8995,7.6837 C62.8995,11.8597 66.2835,15.2407 70.4575,15.2407" id="Fill-11"></path>
                    <path d="M208.731,51.418 L198.637,51.418 C194.026,51.418 192.6,47.988 192.6,44.621 L192.6,42.676 C192.6,41.336 192.285,39.958 190.048,39.958 L185.881,39.958 L185.881,43.453 C185.881,44.484 186.272,45.131 186.854,45.348 C187.185,45.473 187.295,45.522 187.47,45.582 C187.892,45.738 188.147,46.121 188.147,46.658 L188.147,51.418 L170.049,51.418 L170.049,46.658 C170.049,46.121 170.302,45.738 170.725,45.582 C170.899,45.522 171.01,45.473 171.342,45.348 C171.923,45.131 172.315,44.484 172.315,43.453 L172.315,30.737 C172.315,29.708 171.923,29.059 171.342,28.84 C171.01,28.715 170.899,28.668 170.725,28.606 C170.302,28.454 170.049,28.069 170.049,27.532 L170.049,22.772 L198.637,22.772 C205.014,22.772 207.652,26.747 207.709,30.577 C207.762,34.024 205.388,37.108 202.237,38.022 C205.206,38.573 206.888,41.11 206.888,43.637 C206.888,45.234 207.352,45.652 208.731,45.897 L208.731,51.418 Z M166.977,27.532 C166.977,28.069 166.72,28.454 166.297,28.606 C166.124,28.668 166.013,28.715 165.682,28.84 C165.099,29.059 164.711,29.706 164.711,30.737 L164.711,43.186 C164.711,48.207 160.672,51.418 155.651,51.418 L137.864,51.418 C132.84,51.418 128.806,48.207 128.806,43.186 L128.806,30.737 C128.806,29.706 128.416,29.059 127.833,28.84 C127.502,28.715 127.39,28.668 127.216,28.606 C126.794,28.454 126.541,28.069 126.541,27.532 L126.541,22.772 L145.13,22.772 L145.13,27.532 C145.13,28.069 144.876,28.454 144.453,28.606 C144.279,28.668 144.168,28.715 143.837,28.84 C143.255,29.059 142.865,29.706 142.865,30.737 L142.865,42.647 C142.865,44.168 144.039,45.402 145.56,45.402 L148.635,45.402 C150.16,45.402 151.332,44.168 151.332,42.647 L151.332,30.737 C151.332,29.706 150.942,29.059 150.36,28.84 C150.028,28.715 149.918,28.668 149.745,28.606 C149.323,28.454 149.066,28.069 149.066,27.532 L149.066,22.772 L166.977,22.772 L166.977,27.532 Z M123.536,27.532 C123.536,28.069 123.279,28.454 122.857,28.606 C122.684,28.668 122.574,28.715 122.242,28.84 C121.66,29.059 121.27,29.706 121.27,30.737 L121.27,43.453 C121.27,44.482 121.66,45.131 122.242,45.348 C122.574,45.473 122.684,45.522 122.857,45.582 C123.279,45.736 123.536,46.121 123.536,46.658 L123.536,51.418 L105.722,51.418 L105.722,46.658 C105.722,46.121 105.979,45.736 106.401,45.582 C106.575,45.522 106.685,45.473 107.017,45.348 C107.6,45.131 107.988,44.482 107.988,43.453 L107.988,39.768 L98.932,39.768 L98.932,43.453 C98.932,44.482 99.322,45.131 99.904,45.348 C100.236,45.473 100.346,45.522 100.52,45.582 C100.942,45.736 101.196,46.121 101.196,46.658 L101.196,51.418 L82.892,51.418 L82.892,46.658 C82.892,46.121 83.147,45.736 83.569,45.582 C83.744,45.522 83.853,45.473 84.185,45.348 C84.767,45.131 85.158,44.482 85.158,43.453 L85.158,30.737 C85.158,29.706 84.767,29.059 84.185,28.84 C83.853,28.715 83.744,28.668 83.569,28.606 C83.147,28.454 82.892,28.069 82.892,27.532 L82.892,22.772 L101.196,22.772 L101.196,27.532 C101.196,28.069 100.942,28.454 100.52,28.606 C100.346,28.668 100.236,28.715 99.904,28.84 C99.322,29.059 98.932,29.706 98.932,30.737 L98.932,34.106 L107.988,34.106 L107.988,30.737 C107.988,29.706 107.6,29.059 107.017,28.84 C106.685,28.715 106.575,28.668 106.401,28.606 C105.979,28.454 105.722,28.069 105.722,27.532 L105.722,22.772 L123.536,22.772 L123.536,27.532 Z M79.612,27.532 C79.612,28.069 79.356,28.454 78.933,28.606 C78.759,28.668 78.649,28.715 78.318,28.84 C77.736,29.059 77.347,29.706 77.347,30.737 L77.347,43.453 C77.347,44.482 77.736,45.131 78.318,45.348 C78.649,45.473 78.759,45.522 78.933,45.582 C79.356,45.736 79.612,46.121 79.612,46.658 L79.612,51.418 L61.306,51.418 L61.306,46.658 C61.306,46.121 61.562,45.736 61.985,45.582 C62.158,45.522 62.269,45.473 62.6,45.348 C63.182,45.131 63.572,44.482 63.572,43.453 L63.572,30.737 C63.572,29.706 63.182,29.059 62.6,28.84 C62.269,28.715 62.158,28.668 61.985,28.606 C61.562,28.454 61.306,28.069 61.306,27.532 L61.306,22.772 L79.612,22.772 L79.612,27.532 Z M58.354,27.561 C58.354,28.098 58.228,28.366 57.675,28.586 C57.471,28.668 57.485,28.665 57.293,28.737 C56.427,29.059 56.296,29.723 55.899,30.676 C54.17,34.833 48.047,51.357 48.047,51.357 L28.637,51.357 C28.637,51.357 21.908,35.516 19.843,30.78 C19.43,29.833 19.09,29.1 18.45,28.84 C18.122,28.708 18.007,28.668 17.834,28.606 C17.412,28.454 17.157,28.069 17.157,27.532 L17.157,22.772 L36.562,22.772 C36.562,22.772 36.561,26.29 36.561,27.254 C36.561,27.793 36.299,28.159 35.884,28.331 C35.615,28.44 35.56,28.461 35.299,28.549 C34.51,28.817 34.01,29.381 34.343,30.399 C34.813,31.838 37.131,38.862 38.584,43.076 C39.931,39.034 42.509,31.297 42.809,30.399 C43.15,29.383 42.643,28.817 41.854,28.549 C41.592,28.461 41.537,28.44 41.269,28.331 C40.854,28.159 40.593,27.793 40.593,27.254 C40.593,26.29 40.59,22.772 40.59,22.772 L58.354,22.764 L58.354,27.561 Z M114.055,9.442 C104.036,9.442 93.076,9.649 81.943,10.024 C80.856,15.37 76.119,19.405 70.458,19.405 C65.149,19.405 60.661,15.858 59.223,11.01 C35.599,12.268 13.565,14.184 0.669,16.391 L0.669,58.029 C23.67,61.965 75.733,64.979 114.055,64.979 C152.377,64.979 204.441,61.965 227.441,58.029 L227.441,16.391 C204.441,12.456 152.377,9.442 114.055,9.442 Z" id="Fill-13"></path>
                </g>
            </g>
        </g>
    </g>
</svg>