<?xml version="1.0" encoding="UTF-8"?>
<svg width="482" height="369" xmlns="http://www.w3.org/2000/svg">
  <g fill="none" fill-rule="evenodd">
    <path d="M380.77 212.879c-27.68-4.737-90.404-8.593-139.824-8.593-12.511 0-25.874.249-39.305.695-1.25-6.654-7.093-11.708-14.103-11.708-7.44 0-13.573 5.685-14.288 12.939-29.436 1.577-56.424 3.978-72.13 6.667l-4.572.782v60.28l4.573.782c27.684 4.738 90.41 8.594 139.825 8.594 49.412 0 112.138-3.856 139.825-8.594l4.57-.783v-60.28l-4.57-.781z" fill="#1A1919"/>
    <path d="M240.945 209.786c-12.273 0-25.699.254-39.337.713-1.332 6.549-7.135 11.492-14.07 11.492-6.503 0-12-4.347-13.763-10.285-28.939 1.54-55.93 3.889-71.727 6.593v51.004c28.175 4.822 91.953 8.514 138.897 8.514 46.943 0 110.721-3.692 138.897-8.514v-51.004c-28.176-4.823-91.954-8.513-138.897-8.513m-53.408 7.103a9.253 9.253 0 0 0 9.257-9.256 9.254 9.254 0 0 0-9.257-9.258 9.255 9.255 0 0 0-9.257 9.258 9.254 9.254 0 0 0 9.257 9.256" fill="#FFFFFE"/>
    <path d="M334.875 240.101h-5.982v-6.652h5.982a3.325 3.325 0 1 1 0 6.652zm19.79 11.572c0-3.095-2.06-6.203-5.697-6.877 3.86-1.119 6.766-4.898 6.703-9.12-.07-4.692-3.301-9.56-11.114-9.56h-35.02v5.83c0 .657.312 1.13.829 1.315.212.076.349.135.755.287.713.268 1.192 1.063 1.192 2.324v15.575c0 1.263-.479 2.056-1.192 2.322-.406.152-.543.211-.755.287-.517.19-.829.658-.829 1.316v5.831h22.17v-5.83c0-.659-.311-1.127-.829-1.317-.213-.076-.349-.135-.755-.287-.713-.266-1.191-1.059-1.191-2.322v-4.28h5.103c2.74 0 3.127 1.688 3.127 3.327v2.384c0 4.125 1.747 8.325 7.395 8.325h12.367v-6.762c-1.692-.299-2.259-.813-2.259-2.768zm-70.833-19.728c0 .658.314 1.13.832 1.316.213.076.348.135.754.287.714.268 1.189 1.061 1.189 2.324v14.586c0 1.864-1.435 3.375-3.301 3.375h-3.767c-1.864 0-3.303-1.51-3.303-3.375v-14.586c0-1.263.479-2.056 1.193-2.324.406-.152.541-.21.754-.287.516-.187.829-.658.829-1.316v-5.83h-22.774v5.83c0 .658.313 1.13.83 1.316.213.076.348.135.754.287.713.268 1.192 1.061 1.192 2.324v15.25c0 6.15 4.944 10.081 11.096 10.081h21.788c6.154 0 11.1-3.932 11.1-10.082v-15.249c0-1.263.477-2.056 1.19-2.324.406-.152.541-.21.753-.287.518-.187.832-.658.832-1.316v-5.83h-21.941v5.83zm-132.879-.338c0 .658.32 1.107.829 1.316.329.135.397.16.716.27.967.328 1.588 1.02 1.171 2.265l-5.176 15.528c-1.78-5.162-4.62-13.766-5.195-15.528-.407-1.248.205-1.937 1.172-2.265.318-.11.386-.135.716-.27.507-.209.829-.658.829-1.316l.002-5.492h-23.772v5.83c0 .658.312 1.13.829 1.316.213.076.352.125.755.287.784.32 1.201 1.217 1.707 2.375 2.528 5.803 10.772 25.207 10.772 25.207h23.778s7.5-20.242 9.618-25.334c.485-1.166.648-1.98 1.707-2.375.236-.088.218-.084.468-.183.678-.272.832-.6.832-1.256v-5.877l-21.761.01.003 5.492zm25.374.338c0 .658.315 1.13.832 1.316.213.076.348.135.754.287.713.268 1.191 1.061 1.191 2.324v15.575c0 1.261-.478 2.056-1.191 2.322-.406.152-.541.211-.754.287-.517.188-.832.658-.832 1.316v5.831h22.426v-5.83c0-.659-.315-1.129-.833-1.317-.212-.076-.348-.135-.753-.287-.714-.266-1.189-1.06-1.189-2.322v-15.575c0-1.263.475-2.056 1.189-2.324.405-.152.541-.21.753-.287.518-.187.833-.658.833-1.316v-5.83h-22.426v5.83zm54.409 0c0 .658.316 1.13.833 1.316.213.076.348.135.754.287.714.268 1.19 1.061 1.19 2.324v4.125h-11.094v-4.125c0-1.263.478-2.056 1.19-2.324.407-.152.542-.21.755-.287.518-.187.829-.658.829-1.316v-5.83h-22.422v5.83c0 .658.312 1.13.829 1.316.213.076.348.135.754.287.712.268 1.192 1.061 1.192 2.324v15.575c0 1.261-.48 2.056-1.192 2.322-.406.152-.541.211-.754.287-.517.188-.829.658-.829 1.316v5.831h22.422v-5.83c0-.659-.311-1.129-.829-1.317-.213-.076-.348-.135-.755-.287-.712-.266-1.19-1.06-1.19-2.322v-4.512h11.094v4.512c0 1.261-.476 2.056-1.19 2.322-.406.152-.541.211-.754.287-.517.188-.833.658-.833 1.316v5.831h21.823v-5.83c0-.659-.314-1.129-.831-1.317-.213-.076-.349-.135-.755-.287-.712-.266-1.189-1.06-1.189-2.322v-15.575c0-1.263.477-2.056 1.189-2.324.406-.152.542-.21.755-.287.517-.187.831-.658.831-1.316v-5.83h-21.823v5.83zM258.7 190.013c-12.716 0-23.06-10.34-23.06-23.05 0-6.995 3.13-13.27 8.063-17.504-3.14.007-5.453-.076-6.974.758-.983.54-1.919 1.726-3.466 4.203-4.732 7.574-20.803 33.27-20.803 33.27h-45.495l17.956-96.833h45.43l-7.63 36.851s16.374-26.16 16.693-26.675c5.787-9.24 9.04-10.176 20.435-10.176h73.974l-36.607 58.601h-23.525c4.934 4.233 8.063 10.51 8.063 17.505 0 12.71-10.342 23.05-23.054 23.05" fill="#1A1919"/>
    <path d="M259.85 96.384c-10.21 0-11.34.541-15.738 7.561-.531.856-1.608 2.566-3.022 4.825h75.013l7.745-12.386H259.85zm-29.547 29.636h75.033l7.416-11.865h-75.015c-2.151 3.431-4.675 7.46-7.434 11.865zm-19.242 30.741l12.502-60.377h-34.045l-15.905 85.778h35.785s14.446-23.096 19.178-30.67c4.4-7.046 5.53-7.56 15.74-7.56h49.834l7.81-12.527h-75.032c-5.18 8.283-10.797 17.273-15.867 25.356zm47.64-7.33c-9.687 0-17.533 7.843-17.533 17.532 0 9.686 7.846 17.523 17.533 17.523 9.678 0 17.526-7.837 17.526-17.523 0-9.689-7.848-17.532-17.526-17.532z" fill="#FFFFFE"/>
  </g>
</svg>